<svg 
 xmlns="http://www.w3.org/2000/svg"
 xmlns:xlink="http://www.w3.org/1999/xlink"
 width="30px" height="24px">
<path fill-rule="evenodd"  fill="currentColor"
 d="M26.857,14.951 L25.319,13.818 L25.319,24.000 L4.681,24.000 L4.681,13.818 L3.142,14.951 L-0.000,11.042 L15.000,-0.001 L30.000,11.042 L26.857,14.951 ZM6.441,22.315 L23.559,22.315 L23.559,12.523 L15.000,6.222 L6.441,12.523 L6.441,22.315 ZM2.468,11.349 L3.464,12.589 L15.000,4.098 L26.536,12.589 L27.532,11.349 L15.000,2.124 L2.468,11.349 ZM17.738,12.182 L17.738,13.471 L18.910,13.471 L18.910,19.932 L11.090,19.932 L11.090,13.471 L12.262,13.471 L12.262,12.182 C12.262,10.813 13.490,9.700 15.000,9.700 C16.510,9.700 17.738,10.813 17.738,12.182 ZM12.849,15.154 L12.849,18.248 L17.151,18.248 L17.151,15.154 L12.849,15.154 ZM14.022,12.182 L14.022,12.182 L14.022,13.471 L15.978,13.471 L15.978,12.182 C15.978,11.742 15.539,11.384 15.000,11.384 C14.461,11.384 14.022,11.742 14.022,12.182 Z"/>
</svg>