<svg 
 xmlns="http://www.w3.org/2000/svg"
 xmlns:xlink="http://www.w3.org/1999/xlink"
 width="30px" height="30px">
<path fill-rule="evenodd"  fill="currentColor"
 d="M9.863,16.659 C9.354,16.596 8.970,16.159 8.970,15.645 L8.970,14.359 C8.970,13.846 9.353,13.410 9.862,13.345 L10.149,13.309 C10.214,13.122 10.290,12.938 10.376,12.759 L10.199,12.530 C9.884,12.124 9.920,11.543 10.283,11.180 L11.190,10.271 C11.552,9.907 12.131,9.871 12.536,10.185 L12.765,10.364 C12.944,10.277 13.127,10.202 13.314,10.136 L13.350,9.849 C13.414,9.339 13.849,8.955 14.362,8.955 L15.644,8.955 C16.157,8.955 16.592,9.340 16.656,9.850 L16.692,10.138 C16.877,10.202 17.058,10.278 17.235,10.364 L17.464,10.185 C17.869,9.871 18.448,9.907 18.810,10.271 L19.717,11.180 C20.080,11.543 20.116,12.124 19.801,12.530 L19.624,12.759 C19.710,12.938 19.786,13.122 19.851,13.309 L20.138,13.345 C20.647,13.410 21.030,13.846 21.030,14.359 L21.030,15.645 C21.030,16.159 20.646,16.596 20.137,16.659 L19.849,16.695 C19.785,16.880 19.710,17.063 19.624,17.240 L19.802,17.469 C20.116,17.876 20.080,18.456 19.717,18.819 L18.810,19.729 C18.447,20.092 17.868,20.128 17.463,19.812 L17.235,19.634 C17.058,19.720 16.877,19.796 16.692,19.861 L16.656,20.149 C16.592,20.659 16.157,21.044 15.644,21.044 L14.361,21.044 C13.849,21.044 13.414,20.660 13.350,20.149 L13.314,19.863 C13.127,19.797 12.943,19.721 12.765,19.634 L12.537,19.812 C12.132,20.128 11.553,20.092 11.190,19.729 L10.283,18.819 C9.920,18.456 9.884,17.876 10.198,17.470 L10.376,17.240 C10.290,17.063 10.215,16.880 10.151,16.695 L9.863,16.659 ZM10.546,15.841 C10.724,15.863 10.872,15.991 10.921,16.163 C11.010,16.477 11.136,16.782 11.296,17.069 C11.384,17.226 11.369,17.420 11.259,17.562 L10.905,18.020 C10.866,18.070 10.871,18.140 10.915,18.185 L11.823,19.094 C11.867,19.139 11.938,19.143 11.987,19.104 L12.442,18.749 C12.522,18.687 12.619,18.655 12.717,18.655 C12.792,18.655 12.867,18.674 12.935,18.712 C13.223,18.873 13.528,19.001 13.844,19.089 C14.016,19.139 14.143,19.287 14.166,19.465 L14.238,20.037 C14.245,20.100 14.299,20.147 14.362,20.147 L15.644,20.147 C15.707,20.147 15.760,20.100 15.768,20.037 L15.840,19.465 C15.862,19.286 15.989,19.138 16.161,19.088 C16.474,19.000 16.779,18.873 17.065,18.712 C17.222,18.624 17.416,18.639 17.558,18.749 L18.013,19.104 C18.062,19.143 18.133,19.139 18.178,19.094 L19.085,18.185 C19.129,18.140 19.134,18.070 19.095,18.020 L18.741,17.562 C18.631,17.420 18.617,17.226 18.704,17.069 C18.864,16.782 18.991,16.477 19.079,16.163 C19.128,15.991 19.276,15.863 19.454,15.841 L20.026,15.769 C20.088,15.761 20.135,15.708 20.135,15.645 L20.135,14.359 C20.135,14.296 20.088,14.243 20.026,14.235 L19.455,14.163 C19.277,14.140 19.129,14.013 19.081,13.840 C18.992,13.525 18.865,13.218 18.704,12.929 C18.616,12.772 18.631,12.577 18.741,12.435 L19.095,11.979 C19.133,11.930 19.129,11.859 19.085,11.814 L18.178,10.905 C18.133,10.860 18.062,10.856 18.013,10.894 L17.557,11.249 C17.415,11.359 17.221,11.374 17.065,11.286 C16.778,11.126 16.474,10.999 16.161,10.910 C15.988,10.861 15.862,10.713 15.840,10.534 L15.768,9.961 C15.760,9.898 15.707,9.852 15.644,9.852 L14.361,9.852 C14.299,9.852 14.245,9.898 14.238,9.961 L14.166,10.533 C14.143,10.712 14.016,10.860 13.843,10.909 C13.529,10.998 13.223,11.125 12.935,11.286 C12.779,11.374 12.585,11.359 12.443,11.249 L11.987,10.894 C11.938,10.856 11.867,10.860 11.822,10.905 L10.915,11.814 C10.871,11.859 10.866,11.930 10.905,11.979 L11.259,12.435 C11.369,12.577 11.384,12.772 11.296,12.929 C11.135,13.218 11.008,13.524 10.919,13.840 C10.870,14.013 10.723,14.140 10.545,14.163 L9.974,14.235 C9.912,14.243 9.865,14.296 9.865,14.359 L9.865,15.646 C9.865,15.709 9.912,15.761 9.974,15.770 L10.546,15.841 ZM15.000,11.753 C16.786,11.753 18.239,13.209 18.239,15.000 C18.239,16.790 16.786,18.246 15.000,18.246 C14.453,18.246 13.912,18.107 13.436,17.844 C13.220,17.723 13.141,17.451 13.261,17.233 C13.380,17.016 13.652,16.938 13.869,17.058 C14.213,17.248 14.604,17.349 15.000,17.349 C16.292,17.349 17.344,16.295 17.344,14.999 C17.344,13.704 16.292,12.650 15.000,12.650 C13.707,12.650 12.656,13.704 12.656,14.999 C12.656,15.326 12.721,15.642 12.850,15.938 C12.949,16.165 12.846,16.429 12.619,16.529 C12.393,16.627 12.129,16.524 12.030,16.297 C11.852,15.886 11.761,15.450 11.761,14.999 C11.761,13.209 13.214,11.753 15.000,11.753 ZM29.210,5.748 L26.203,5.748 L26.203,6.920 L29.210,6.920 C29.646,6.920 30.000,7.275 30.000,7.712 L30.000,9.476 C30.000,9.913 29.646,10.268 29.210,10.268 L26.203,10.268 L26.203,11.440 L29.210,11.440 C29.646,11.440 30.000,11.795 30.000,12.231 L30.000,13.996 C30.000,14.432 29.646,14.788 29.210,14.788 L26.203,14.788 L26.203,15.959 L29.210,15.959 C29.646,15.959 30.000,16.315 30.000,16.751 L30.000,18.516 C30.000,18.952 29.646,19.307 29.210,19.307 L26.203,19.307 L26.203,20.479 L29.210,20.479 C29.646,20.479 30.000,20.834 30.000,21.270 L30.000,23.035 C30.000,23.472 29.646,23.826 29.210,23.826 L26.203,23.826 L26.203,24.999 L29.210,24.999 C29.646,24.999 30.000,25.353 30.000,25.790 L30.000,27.555 C30.000,27.991 29.646,28.347 29.210,28.347 L26.203,28.347 L26.203,28.738 C26.203,29.433 25.560,30.000 24.771,30.000 L5.229,30.000 C4.440,30.000 3.797,29.433 3.797,28.738 L3.797,28.347 L0.789,28.347 C0.354,28.347 -0.000,27.991 -0.000,27.555 L-0.000,25.790 C-0.000,25.353 0.354,24.999 0.789,24.999 L3.797,24.999 L3.797,23.826 L0.789,23.826 C0.354,23.826 -0.000,23.472 -0.000,23.035 L-0.000,21.270 C-0.000,20.834 0.354,20.479 0.789,20.479 L3.797,20.479 L3.797,19.307 L0.789,19.307 C0.354,19.307 -0.000,18.952 -0.000,18.516 L-0.000,16.751 C-0.000,16.315 0.354,15.959 0.789,15.959 L3.797,15.959 L3.797,14.787 L0.789,14.787 C0.354,14.787 -0.000,14.432 -0.000,13.996 L-0.000,12.231 C-0.000,11.795 0.354,11.440 0.789,11.440 L3.797,11.440 L3.797,10.268 L0.789,10.268 C0.354,10.268 -0.000,9.913 -0.000,9.476 L-0.000,7.711 C-0.000,7.275 0.354,6.920 0.789,6.920 L3.797,6.920 L3.797,5.748 L0.789,5.748 C0.354,5.748 -0.000,5.393 -0.000,4.956 L-0.000,3.192 C-0.000,2.755 0.354,2.400 0.789,2.400 L3.797,2.400 L3.797,1.261 C3.797,0.565 4.440,-0.001 5.229,-0.001 L5.992,-0.001 C6.239,-0.001 6.440,0.200 6.440,0.448 C6.440,0.696 6.239,0.896 5.992,0.896 L5.229,0.896 C4.943,0.896 4.692,1.067 4.692,1.261 L4.692,2.849 L4.692,5.300 L4.692,7.369 L4.692,9.819 L4.692,11.888 L4.692,14.338 L4.692,16.408 L4.692,18.858 L4.692,20.927 L4.692,23.378 L4.692,25.447 L4.692,27.898 L4.692,28.738 C4.692,28.932 4.943,29.102 5.229,29.102 L24.771,29.102 C25.057,29.102 25.308,28.932 25.308,28.738 L25.308,27.898 L25.308,25.447 L25.308,23.379 L25.308,20.927 L25.308,18.858 L25.308,16.408 L25.308,14.338 L25.308,11.888 L25.308,9.819 L25.308,7.369 L25.308,5.300 L25.308,2.849 L25.308,1.261 C25.308,1.067 25.057,0.896 24.771,0.896 L17.888,0.896 C17.649,2.123 16.471,3.369 15.000,3.369 C13.529,3.369 12.351,2.123 12.111,0.896 L7.618,0.896 C7.371,0.896 7.170,0.696 7.170,0.448 C7.170,0.200 7.371,-0.000 7.618,-0.000 L12.514,-0.000 C12.761,-0.000 12.962,0.200 12.962,0.448 C12.962,1.358 13.902,2.472 15.000,2.472 C16.098,2.472 17.038,1.358 17.038,0.448 C17.038,0.200 17.239,-0.000 17.486,-0.000 L24.771,-0.000 C25.560,-0.000 26.203,0.565 26.203,1.261 L26.203,2.400 L29.210,2.400 C29.646,2.400 30.000,2.755 30.000,3.192 L30.000,4.956 C30.000,5.393 29.646,5.748 29.210,5.748 ZM26.203,9.371 L29.105,9.371 L29.105,7.817 L26.203,7.817 L26.203,9.371 ZM26.203,13.890 L29.105,13.890 L29.105,12.336 L26.203,12.336 L26.203,13.890 ZM26.203,18.410 L29.105,18.410 L29.105,16.857 L26.203,16.857 L26.203,18.410 ZM26.203,22.930 L29.105,22.930 L29.105,21.376 L26.203,21.376 L26.203,22.930 ZM26.203,27.449 L29.105,27.449 L29.105,25.896 L26.203,25.896 L26.203,27.449 ZM3.797,3.297 L0.895,3.297 L0.895,4.851 L3.797,4.851 L3.797,3.297 ZM3.797,7.817 L0.895,7.817 L0.895,9.371 L3.797,9.371 L3.797,7.817 ZM3.797,12.336 L0.895,12.336 L0.895,13.890 L3.797,13.890 L3.797,12.336 ZM3.797,16.857 L0.895,16.857 L0.895,18.410 L3.797,18.410 L3.797,16.857 ZM3.797,21.376 L0.895,21.376 L0.895,22.930 L3.797,22.930 L3.797,21.376 ZM3.797,25.896 L0.895,25.896 L0.895,27.449 L3.797,27.449 L3.797,25.896 ZM29.105,3.297 L26.203,3.297 L26.203,4.851 L29.105,4.851 L29.105,3.297 Z"/>
</svg>