<svg 
 xmlns="http://www.w3.org/2000/svg"
 xmlns:xlink="http://www.w3.org/1999/xlink"
 width="31px" height="30px">
<path fill-rule="evenodd"  fill="currentColor"
 d="M29.450,3.964 L29.450,28.487 L27.900,26.972 L24.800,30.002 L21.700,26.972 L18.600,30.002 L15.500,26.972 L12.400,30.002 L9.300,26.972 L6.200,30.002 L3.100,26.972 L1.550,28.487 L1.550,3.964 C0.661,3.738 -0.000,2.954 -0.000,2.015 C-0.000,0.901 0.927,-0.005 2.067,-0.005 L28.933,-0.005 C30.073,-0.005 31.000,0.901 31.000,2.015 C31.000,2.954 30.339,3.738 29.450,3.964 ZM2.583,4.036 L2.583,26.049 L3.100,25.544 L6.200,28.573 L9.300,25.544 L12.400,28.573 L15.500,25.544 L18.600,28.573 L21.700,25.544 L24.800,28.573 L27.900,25.544 L28.417,26.049 L28.417,4.036 L28.417,2.521 L2.583,2.521 L2.583,4.036 ZM28.933,1.005 L2.067,1.005 C1.497,1.005 1.033,1.458 1.033,2.015 C1.033,2.389 1.242,2.715 1.550,2.890 L1.550,1.510 L29.450,1.510 L29.450,2.890 C29.758,2.715 29.967,2.389 29.967,2.015 C29.967,1.458 29.503,1.005 28.933,1.005 ZM26.867,6.055 C26.581,6.055 26.350,5.829 26.350,5.551 C26.350,5.272 26.581,5.046 26.867,5.046 C27.152,5.046 27.383,5.272 27.383,5.551 C27.383,5.829 27.152,6.055 26.867,6.055 ZM25.317,21.207 C25.182,21.207 25.048,21.151 24.950,21.061 C24.857,20.964 24.800,20.833 24.800,20.702 C24.800,20.565 24.857,20.439 24.950,20.343 C25.146,20.157 25.487,20.157 25.683,20.343 C25.776,20.439 25.833,20.565 25.833,20.702 C25.833,20.833 25.776,20.964 25.683,21.061 C25.585,21.151 25.451,21.207 25.317,21.207 ZM25.317,17.672 L20.150,17.672 C19.865,17.672 19.633,17.446 19.633,17.166 C19.633,16.887 19.865,16.662 20.150,16.662 L25.317,16.662 C25.602,16.662 25.833,16.887 25.833,17.166 C25.833,17.446 25.602,17.672 25.317,17.672 ZM25.317,14.137 L17.567,14.137 C17.281,14.137 17.050,13.911 17.050,13.631 C17.050,13.352 17.281,13.126 17.567,13.126 L25.317,13.126 C25.602,13.126 25.833,13.352 25.833,13.631 C25.833,13.911 25.602,14.137 25.317,14.137 ZM25.317,10.601 C25.182,10.601 25.048,10.546 24.950,10.455 C24.857,10.358 24.800,10.228 24.800,10.096 C24.800,9.959 24.857,9.833 24.950,9.738 C25.141,9.551 25.492,9.551 25.683,9.738 C25.776,9.833 25.833,9.965 25.833,10.096 C25.833,10.228 25.776,10.358 25.683,10.455 C25.585,10.546 25.456,10.601 25.317,10.601 ZM24.800,6.055 C24.515,6.055 24.283,5.829 24.283,5.551 C24.283,5.272 24.515,5.046 24.800,5.046 C25.085,5.046 25.317,5.272 25.317,5.551 C25.317,5.829 25.085,6.055 24.800,6.055 ZM22.733,10.601 L14.983,10.601 C14.698,10.601 14.467,10.376 14.467,10.096 C14.467,9.817 14.698,9.591 14.983,9.591 L22.733,9.591 C23.018,9.591 23.250,9.817 23.250,10.096 C23.250,10.376 23.018,10.601 22.733,10.601 ZM22.733,6.055 C22.448,6.055 22.217,5.829 22.217,5.551 C22.217,5.272 22.448,5.046 22.733,5.046 C23.019,5.046 23.250,5.272 23.250,5.551 C23.250,5.829 23.019,6.055 22.733,6.055 ZM20.667,6.055 C20.381,6.055 20.150,5.829 20.150,5.551 C20.150,5.272 20.381,5.046 20.667,5.046 C20.952,5.046 21.183,5.272 21.183,5.551 C21.183,5.829 20.952,6.055 20.667,6.055 ZM18.600,6.055 C18.315,6.055 18.083,5.829 18.083,5.551 C18.083,5.272 18.315,5.046 18.600,5.046 C18.885,5.046 19.117,5.272 19.117,5.551 C19.117,5.829 18.885,6.055 18.600,6.055 ZM16.533,6.055 C16.248,6.055 16.017,5.829 16.017,5.551 C16.017,5.272 16.248,5.046 16.533,5.046 C16.819,5.046 17.050,5.272 17.050,5.551 C17.050,5.829 16.819,6.055 16.533,6.055 ZM14.467,6.055 C14.181,6.055 13.950,5.829 13.950,5.551 C13.950,5.272 14.181,5.046 14.467,5.046 C14.752,5.046 14.983,5.272 14.983,5.551 C14.983,5.829 14.752,6.055 14.467,6.055 ZM12.400,6.055 C12.115,6.055 11.883,5.829 11.883,5.551 C11.883,5.272 12.115,5.046 12.400,5.046 C12.685,5.046 12.917,5.272 12.917,5.551 C12.917,5.829 12.685,6.055 12.400,6.055 ZM10.333,13.632 C10.048,13.632 9.817,13.406 9.817,13.127 C9.817,12.469 9.383,11.914 8.783,11.705 L8.783,14.451 L9.935,15.327 C10.336,15.631 10.596,16.089 10.649,16.583 C10.701,17.066 10.555,17.533 10.240,17.898 C9.861,18.336 9.347,18.629 8.783,18.741 L8.783,19.187 C8.783,19.466 8.552,19.691 8.267,19.691 C7.981,19.691 7.750,19.466 7.750,19.187 L7.750,18.743 C6.572,18.508 5.683,17.488 5.683,16.269 C5.683,15.990 5.915,15.764 6.200,15.764 C6.485,15.764 6.717,15.990 6.717,16.269 C6.717,16.927 7.150,17.482 7.750,17.691 L7.750,14.944 L6.598,14.069 C6.197,13.763 5.936,13.306 5.884,12.811 C5.832,12.328 5.978,11.861 6.294,11.496 C6.673,11.058 7.186,10.766 7.750,10.654 L7.750,10.096 C7.750,9.817 7.981,9.591 8.267,9.591 C8.552,9.591 8.783,9.817 8.783,10.096 L8.783,10.653 C9.961,10.887 10.850,11.907 10.850,13.127 C10.850,13.406 10.618,13.632 10.333,13.632 ZM8.783,17.688 C9.038,17.600 9.271,17.454 9.451,17.247 C9.583,17.094 9.644,16.895 9.622,16.688 C9.598,16.467 9.481,16.261 9.300,16.124 L8.783,15.730 L8.783,17.688 ZM7.750,11.707 C7.495,11.796 7.262,11.941 7.082,12.148 C6.950,12.302 6.890,12.500 6.911,12.706 C6.935,12.928 7.052,13.135 7.233,13.272 L7.750,13.665 L7.750,11.707 ZM10.333,6.055 C10.048,6.055 9.817,5.829 9.817,5.551 C9.817,5.272 10.048,5.046 10.333,5.046 C10.619,5.046 10.850,5.272 10.850,5.551 C10.850,5.829 10.619,6.055 10.333,6.055 ZM8.267,6.055 C7.981,6.055 7.750,5.829 7.750,5.551 C7.750,5.272 7.981,5.046 8.267,5.046 C8.552,5.046 8.783,5.272 8.783,5.551 C8.783,5.829 8.552,6.055 8.267,6.055 ZM6.200,6.055 C5.915,6.055 5.683,5.829 5.683,5.551 C5.683,5.272 5.915,5.046 6.200,5.046 C6.485,5.046 6.717,5.272 6.717,5.551 C6.717,5.829 6.485,6.055 6.200,6.055 ZM4.133,6.055 C3.848,6.055 3.617,5.829 3.617,5.551 C3.617,5.272 3.848,5.046 4.133,5.046 C4.419,5.046 4.650,5.272 4.650,5.551 C4.650,5.829 4.419,6.055 4.133,6.055 ZM15.133,13.990 C15.040,13.894 14.983,13.768 14.983,13.631 C14.983,13.494 15.040,13.368 15.133,13.273 C15.329,13.086 15.676,13.086 15.867,13.273 C15.960,13.368 16.017,13.494 16.017,13.631 C16.017,13.768 15.960,13.894 15.867,13.990 C15.769,14.081 15.634,14.137 15.500,14.137 C15.366,14.137 15.231,14.081 15.133,13.990 ZM14.983,16.662 L16.017,16.662 C16.302,16.662 16.533,16.887 16.533,17.166 C16.533,17.446 16.302,17.672 16.017,17.672 L14.983,17.672 C14.698,17.672 14.467,17.446 14.467,17.166 C14.467,16.887 14.698,16.662 14.983,16.662 ZM17.716,17.526 C17.623,17.429 17.567,17.298 17.567,17.166 C17.567,17.035 17.623,16.903 17.716,16.808 C17.913,16.621 18.259,16.621 18.450,16.808 C18.543,16.899 18.600,17.030 18.600,17.166 C18.600,17.303 18.543,17.429 18.450,17.526 C18.352,17.616 18.218,17.672 18.083,17.672 C17.949,17.672 17.815,17.616 17.716,17.526 ZM14.983,20.198 L22.733,20.198 C23.018,20.198 23.250,20.423 23.250,20.702 C23.250,20.981 23.018,21.207 22.733,21.207 L14.983,21.207 C14.698,21.207 14.467,20.981 14.467,20.702 C14.467,20.423 14.698,20.198 14.983,20.198 Z"/>
</svg>