<svg 
 xmlns="http://www.w3.org/2000/svg"
 xmlns:xlink="http://www.w3.org/1999/xlink"
 width="30px" height="30px">
<path fill-rule="evenodd"  fill="currentColor"
 d="M30.000,14.999 C30.000,19.006 28.440,22.772 25.607,25.606 C22.773,28.439 19.007,30.000 15.000,30.000 C13.069,30.000 11.189,29.637 9.412,28.924 C9.112,28.803 8.966,28.462 9.087,28.161 C9.207,27.862 9.548,27.716 9.849,27.836 C11.486,28.494 13.219,28.827 15.000,28.827 C22.625,28.827 28.828,22.624 28.828,14.999 C28.828,12.113 27.955,9.367 26.300,7.028 C25.952,7.202 25.572,7.288 25.192,7.288 C24.557,7.288 23.921,7.047 23.437,6.562 C22.968,6.093 22.710,5.470 22.710,4.807 C22.710,4.144 22.968,3.521 23.437,3.052 C24.405,2.084 25.980,2.084 26.948,3.052 C27.823,3.927 27.907,5.300 27.198,6.270 C29.032,8.824 30.000,11.834 30.000,14.999 ZM26.119,3.880 C25.863,3.625 25.528,3.497 25.192,3.497 C24.857,3.497 24.521,3.625 24.265,3.880 C24.018,4.128 23.882,4.457 23.882,4.807 C23.882,5.157 24.018,5.486 24.265,5.734 C24.777,6.245 25.608,6.245 26.119,5.734 C26.630,5.223 26.630,4.391 26.119,3.880 ZM15.028,24.489 C15.029,24.489 15.030,24.489 15.031,24.489 C15.353,24.489 15.615,24.749 15.617,25.072 C15.619,25.395 15.358,25.659 15.034,25.661 L15.000,25.661 C14.676,25.661 14.414,25.398 14.414,25.075 C14.414,24.751 14.676,24.489 15.000,24.489 L15.028,24.489 ZM23.967,9.224 C25.268,11.241 25.852,13.674 25.610,16.074 C25.364,18.510 24.274,20.806 22.540,22.540 C21.191,23.889 19.504,24.852 17.663,25.325 C17.350,25.406 17.030,25.216 16.950,24.903 C16.869,24.590 17.058,24.270 17.372,24.190 C19.010,23.769 20.511,22.912 21.712,21.711 C24.853,18.570 25.387,13.586 22.983,9.860 C22.788,9.558 22.473,9.363 22.117,9.326 C21.764,9.288 21.417,9.411 21.166,9.662 C20.773,10.055 20.712,10.663 21.019,11.140 C22.846,13.985 22.410,17.764 19.982,20.126 C18.647,21.424 16.877,22.140 15.000,22.140 C13.123,22.140 11.353,21.424 10.018,20.126 C7.589,17.764 7.153,13.985 8.981,11.140 C9.288,10.663 9.227,10.055 8.834,9.662 C8.583,9.411 8.236,9.288 7.883,9.326 C7.527,9.363 7.212,9.558 7.017,9.860 C4.613,13.586 5.147,18.570 8.288,21.711 C9.496,22.920 11.007,23.779 12.656,24.197 C12.970,24.276 13.159,24.595 13.080,24.909 C13.013,25.174 12.774,25.351 12.512,25.351 C12.465,25.351 12.416,25.345 12.368,25.333 C10.514,24.863 8.816,23.897 7.459,22.540 C5.725,20.806 4.635,18.510 4.390,16.074 C4.148,13.674 4.731,11.241 6.032,9.224 C6.420,8.624 7.049,8.236 7.758,8.160 C8.465,8.085 9.160,8.331 9.662,8.834 C10.449,9.620 10.574,10.829 9.967,11.774 C8.439,14.152 8.804,17.311 10.834,19.285 C13.131,21.519 16.868,21.519 19.165,19.285 C21.195,17.311 21.560,14.152 20.033,11.774 C19.426,10.829 19.551,9.620 20.337,8.834 C20.840,8.331 21.534,8.085 22.241,8.160 C22.951,8.236 23.580,8.624 23.967,9.224 ZM16.758,10.291 C16.604,10.291 16.452,10.229 16.343,10.120 C16.235,10.010 16.172,9.860 16.172,9.706 C16.172,9.551 16.235,9.400 16.343,9.291 C16.452,9.182 16.604,9.119 16.758,9.119 C16.912,9.119 17.063,9.182 17.172,9.291 C17.281,9.400 17.344,9.551 17.344,9.706 C17.344,9.860 17.281,10.010 17.172,10.120 C17.063,10.229 16.912,10.291 16.758,10.291 ZM17.344,13.249 C17.344,14.541 16.292,15.593 15.000,15.593 C13.708,15.593 12.656,14.541 12.656,13.249 L12.656,6.161 C12.656,4.870 13.708,3.818 15.000,3.818 C16.292,3.818 17.344,4.870 17.344,6.161 L17.344,7.343 C17.344,7.666 17.081,7.929 16.758,7.929 C16.434,7.929 16.172,7.666 16.172,7.343 L16.172,6.161 C16.172,5.515 15.646,4.990 15.000,4.990 C14.354,4.990 13.828,5.515 13.828,6.161 L13.828,13.249 C13.828,13.895 14.354,14.421 15.000,14.421 C15.646,14.421 16.172,13.895 16.172,13.249 L16.172,12.167 C16.172,11.844 16.434,11.581 16.758,11.581 C17.081,11.581 17.344,11.844 17.344,12.167 L17.344,13.249 ZM20.176,2.173 C18.531,1.508 16.790,1.171 15.000,1.171 C7.375,1.171 1.172,7.374 1.172,14.999 C1.172,17.887 2.044,20.632 3.699,22.970 C4.039,22.800 4.416,22.709 4.808,22.709 C5.471,22.709 6.094,22.967 6.563,23.436 C7.032,23.905 7.290,24.528 7.290,25.192 C7.290,25.855 7.032,26.478 6.563,26.947 C6.094,27.416 5.471,27.674 4.808,27.674 C4.145,27.674 3.521,27.416 3.052,26.947 C2.583,26.478 2.325,25.855 2.325,25.192 C2.325,24.658 2.492,24.151 2.802,23.729 C0.967,21.174 -0.000,18.166 -0.000,14.999 C-0.000,10.993 1.560,7.226 4.393,4.393 C7.226,1.559 10.993,-0.001 15.000,-0.001 C16.941,-0.001 18.830,0.365 20.615,1.086 C20.915,1.207 21.060,1.548 20.939,1.848 C20.817,2.149 20.476,2.293 20.176,2.173 ZM3.881,26.119 C4.128,26.366 4.458,26.502 4.808,26.502 C5.158,26.502 5.487,26.366 5.734,26.119 C5.982,25.871 6.118,25.541 6.118,25.192 C6.118,24.841 5.982,24.513 5.734,24.265 C5.487,24.017 5.158,23.881 4.808,23.881 C4.458,23.881 4.128,24.017 3.881,24.265 C3.633,24.513 3.497,24.841 3.497,25.192 C3.497,25.541 3.633,25.871 3.881,26.119 Z"/>
</svg>