<svg 
 xmlns="http://www.w3.org/2000/svg"
 xmlns:xlink="http://www.w3.org/1999/xlink"
 width="30px" height="30px">
<path fill-rule="evenodd"  fill="currentColor"
 d="M27.000,25.499 L27.000,27.000 L25.500,27.000 L25.500,30.000 L4.500,30.000 L4.500,27.000 L3.000,27.000 L3.000,25.499 L-0.000,25.499 L-0.000,8.500 L4.500,8.500 L4.500,-0.001 L25.500,-0.001 L25.500,8.500 L30.000,8.500 L30.000,25.499 L27.000,25.499 ZM5.500,27.000 L5.500,28.999 L24.500,28.999 L24.500,27.000 L24.500,18.499 L5.500,18.499 L5.500,27.000 ZM1.000,24.499 L3.000,24.499 L3.000,22.499 C3.000,22.223 3.223,22.000 3.500,22.000 C3.776,22.000 4.000,22.223 4.000,22.499 L4.000,24.499 L4.000,25.000 L4.000,25.999 L4.500,25.999 L4.500,18.499 L1.000,18.499 L1.000,24.499 ZM24.500,0.999 L5.500,0.999 L5.500,8.500 L24.500,8.500 L24.500,0.999 ZM29.000,9.499 L25.500,9.499 L4.500,9.499 L1.000,9.499 L1.000,17.499 L29.000,17.499 L29.000,9.499 ZM29.000,18.499 L25.500,18.499 L25.500,25.999 L26.000,25.999 L26.000,25.000 L26.000,24.499 L26.000,22.499 C26.000,22.223 26.223,22.000 26.500,22.000 C26.776,22.000 27.000,22.223 27.000,22.499 L27.000,24.499 L29.000,24.499 L29.000,18.499 ZM3.000,10.999 L4.500,10.999 C4.776,10.999 5.000,11.223 5.000,11.499 C5.000,11.776 4.776,11.999 4.500,11.999 L3.000,11.999 C2.723,11.999 2.500,11.776 2.500,11.499 C2.500,11.223 2.723,10.999 3.000,10.999 ZM3.000,12.999 L4.500,12.999 C4.776,12.999 5.000,13.223 5.000,13.499 C5.000,13.776 4.776,13.999 4.500,13.999 L3.000,13.999 C2.723,13.999 2.500,13.776 2.500,13.499 C2.500,13.223 2.723,12.999 3.000,12.999 ZM3.000,14.999 L4.500,14.999 C4.776,14.999 5.000,15.223 5.000,15.499 C5.000,15.776 4.776,15.999 4.500,15.999 L3.000,15.999 C2.723,15.999 2.500,15.776 2.500,15.499 C2.500,15.223 2.723,14.999 3.000,14.999 ZM6.500,10.999 L8.000,10.999 C8.276,10.999 8.500,11.223 8.500,11.499 C8.500,11.776 8.276,11.999 8.000,11.999 L6.500,11.999 C6.223,11.999 6.000,11.776 6.000,11.499 C6.000,11.223 6.223,10.999 6.500,10.999 ZM6.500,12.999 L8.000,12.999 C8.276,12.999 8.500,13.223 8.500,13.499 C8.500,13.776 8.276,13.999 8.000,13.999 L6.500,13.999 C6.223,13.999 6.000,13.776 6.000,13.499 C6.000,13.223 6.223,12.999 6.500,12.999 ZM6.500,14.999 L8.000,14.999 C8.276,14.999 8.500,15.223 8.500,15.499 C8.500,15.776 8.276,15.999 8.000,15.999 L6.500,15.999 C6.223,15.999 6.000,15.776 6.000,15.499 C6.000,15.223 6.223,14.999 6.500,14.999 ZM10.000,10.999 L11.500,10.999 C11.776,10.999 12.000,11.223 12.000,11.499 C12.000,11.776 11.776,11.999 11.500,11.999 L10.000,11.999 C9.723,11.999 9.500,11.776 9.500,11.499 C9.500,11.223 9.723,10.999 10.000,10.999 ZM10.000,12.999 L11.500,12.999 C11.776,12.999 12.000,13.223 12.000,13.499 C12.000,13.776 11.776,13.999 11.500,13.999 L10.000,13.999 C9.723,13.999 9.500,13.776 9.500,13.499 C9.500,13.223 9.723,12.999 10.000,12.999 ZM10.000,14.999 L11.500,14.999 C11.776,14.999 12.000,15.223 12.000,15.499 C12.000,15.776 11.776,15.999 11.500,15.999 L10.000,15.999 C9.723,15.999 9.500,15.776 9.500,15.499 C9.500,15.223 9.723,14.999 10.000,14.999 ZM25.000,10.999 C26.378,10.999 27.500,12.121 27.500,13.499 C27.500,14.877 26.378,15.999 25.000,15.999 C23.621,15.999 22.500,14.877 22.500,13.499 C22.500,12.121 23.621,10.999 25.000,10.999 ZM25.000,14.999 C25.827,14.999 26.500,14.326 26.500,13.499 C26.500,12.672 25.827,11.999 25.000,11.999 C24.173,11.999 23.500,12.672 23.500,13.499 C23.500,14.326 24.173,14.999 25.000,14.999 ZM9.000,3.500 L18.000,3.500 C18.276,3.500 18.500,3.723 18.500,3.999 C18.500,4.276 18.276,4.500 18.000,4.500 L9.000,4.500 C8.723,4.500 8.500,4.276 8.500,3.999 C8.500,3.723 8.723,3.500 9.000,3.500 ZM9.000,6.000 L21.000,6.000 C21.276,6.000 21.500,6.222 21.500,6.500 C21.500,6.776 21.276,6.999 21.000,6.999 L9.000,6.999 C8.723,6.999 8.500,6.776 8.500,6.500 C8.500,6.222 8.723,6.000 9.000,6.000 ZM21.000,25.000 L9.000,25.000 C8.723,25.000 8.500,24.776 8.500,24.499 C8.500,24.222 8.723,24.000 9.000,24.000 L21.000,24.000 C21.276,24.000 21.500,24.222 21.500,24.499 C21.500,24.776 21.276,25.000 21.000,25.000 ZM21.000,22.499 L9.000,22.499 C8.723,22.499 8.500,22.276 8.500,22.000 C8.500,21.723 8.723,21.499 9.000,21.499 L21.000,21.499 C21.276,21.499 21.500,21.723 21.500,22.000 C21.500,22.276 21.276,22.499 21.000,22.499 Z"/>
</svg>